/vscmnt/brussel_pixiu_data/_data_brussel/112/vsc11236/PredSimResults/SUBJ06mtu3D/weighted-LRposFixed/expIG/worker_01.mot
version=1
nRows=7
nColumns=50
inDegrees=yes
endheader
                time	         pelvis_tilt	         pelvis_list	     pelvis_rotation	           pelvis_tx	           pelvis_ty	           pelvis_tz	       hip_flexion_r	     hip_adduction_r	      hip_rotation_r	        knee_angle_r	       ankle_angle_r	         mtp_angle_r	       hip_flexion_l	     hip_adduction_l	      hip_rotation_l	        knee_angle_l	       ankle_angle_l	         mtp_angle_l	    lumbar_extension	      lumbar_bending	     lumbar_rotation	 ercspn_r/activation	 intobl_r/activation	 extobl_r/activation	    abd_r/activation	    add_r/activation	hamstrings_r/activation	bifemsh_r/activation	glut_max_r/activation	iliopsoas_r/activation	rect_fem_r/activation	  vasti_r/activation	gastroc_r/activation	 soleus_r/activation	tib_ant_r/activation	 ercspn_l/activation	 intobl_l/activation	 extobl_l/activation	    abd_l/activation	    add_l/activation	hamstrings_l/activation	bifemsh_l/activation	glut_max_l/activation	iliopsoas_l/activation	rect_fem_l/activation	  vasti_l/activation	gastroc_l/activation	 soleus_l/activation	tib_ant_l/activation	
          0.63321982	         -8.31305320	          4.92020790	         -9.49798633	          0.74086719	          0.92420404	          0.01547252	        -10.20098949	         -5.17505680	          6.86645704	         -7.73473875	          9.31442567	         31.39535752	         32.12013651	          0.78554197	         -6.18696443	         -1.82385637	          6.51453756	          0.21575833	         -1.10995746	         -3.00599146	          3.19135983	          0.06990497	          0.01000001	          0.01000003	          0.05317132	          0.01173237	          0.02347592	          0.13229840	          0.03908926	          0.40244777	          0.01000015	          0.01000008	          0.33456370	          0.31836140	          0.01776277	          0.09740642	          0.17358479	          0.03008869	          0.01211079	          0.10882363	          0.05494962	          0.22338538	          0.01037575	          0.07262838	          0.01000013	          0.01000006	          0.02246791	          0.01000001	          0.29390992	
          0.64588422	         -8.40525166	          4.85792039	         -9.53841339	          0.75879088	          0.92209068	          0.01520524	        -10.42036453	         -5.16326629	          6.48696105	         -9.16969621	          8.50269140	         33.42576288	         32.10089718	          0.90213902	         -6.03581544	         -3.37193012	          6.03901805	          0.20665682	         -0.81264224	         -3.35863011	          3.33200748	          0.10354984	          0.01000001	          0.01000003	          0.04390430	          0.04034185	          0.02116161	          0.10924064	          0.03227655	          0.40364309	          0.01000032	          0.01757535	          0.30023259	          0.29502776	          0.01466697	          0.08042986	          0.14333142	          0.02484465	          0.01000006	          0.12470237	          0.05602760	          0.18445270	          0.07530104	          0.05997026	          0.01000013	          0.01000003	          0.02737513	          0.01816579	          0.30724879	
          0.65854861	         -8.47566448	          4.78491327	         -9.51639185	          0.77707412	          0.92023097	          0.01485472	        -10.49943019	         -5.12313618	          6.06845095	        -10.92911306	          7.52728689	         35.47493103	         31.88305990	          1.00557730	         -5.88353005	         -4.79494717	          5.54289571	          0.19757503	         -0.50351575	         -3.71403739	          3.44423040	          0.11013215	          0.01000001	          0.01000004	          0.03625239	          0.03331089	          0.02050467	          0.09020153	          0.02665119	          0.39672304	          0.01113257	          0.01776275	          0.24790622	          0.26013795	          0.01211072	          0.07980892	          0.11835075	          0.02051458	          0.07758438	          0.10414906	          0.06309181	          0.15230952	          0.10848229	          0.04951828	          0.01000004	          0.01000000	          0.02260403	          0.01499974	          0.36572535	
          0.67121301	         -8.52707072	          4.69960523	         -9.43487998	          0.79540387	          0.91886607	          0.01440599	        -10.32444193	         -5.04583122	          5.62659131	        -13.16430122	          6.36125358	         37.46881989	         31.52499193	          1.12615932	         -5.74998685	         -5.96719587	          4.87112954	          0.17006268	         -0.21418790	         -4.06919728	          3.52292975	          0.14935906	          0.01000000	          0.01000003	          0.02993410	          0.04672639	          0.02058960	          0.07448068	          0.02200626	          0.38227444	          0.01000052	          0.01466696	          0.20469961	          0.21479952	          0.00999999	          0.08171609	          0.09772386	          0.01693917	          0.12989201	          0.12623153	          0.06006979	          0.12576412	          0.15453912	          0.04088793	          0.01000004	          0.01000001	          0.01866447	          0.01238550	          0.40248386	
          0.68387740	         -8.55915836	          4.61049860	         -9.29797327	          0.81352549	          0.91815474	          0.01387401	         -9.80649755	         -4.93520354	          5.16173313	        -15.99363644	          5.00969899	         39.22693594	         31.12276172	          1.26810368	         -5.61692169	         -7.11281692	          4.40095174	          0.13912334	          0.03424593	         -4.43485927	          3.56520470	          0.17365932	          0.01000001	          0.01000003	          0.02471700	          0.06930595	          0.02385237	          0.06149977	          0.01817088	          0.34873282	          0.01000004	          0.01211072	          0.16902331	          0.17736294	          0.01000000	          0.08220776	          0.08069195	          0.01398691	          0.16216031	          0.12193639	          0.06062775	          0.10384520	          0.18072464	          0.03376173	          0.01000004	          0.03601336	          0.01541152	          0.01022692	          0.42367656	
          0.69654180	         -8.57280591	          4.51342250	         -9.10899422	          0.83125639	          0.91819611	          0.01329145	         -8.89861445	         -4.78873762	          4.66425722	        -19.46783481	          3.53562082	         40.35382275	         30.69726246	          1.42012661	         -5.47462527	         -8.24817127	          4.15129130	          0.11190694	          0.22761710	         -4.80808015	          3.56913110	          0.19510703	          0.01000001	          0.01000003	          0.02040917	          0.09330603	          0.01969528	          0.05078136	          0.01500395	          0.29058839	          0.01000002	          0.01000000	          0.13956489	          0.14645104	          0.01000000	          0.06788015	          0.06662847	          0.01154920	          0.17263485	          0.10068458	          0.05675254	          0.08574645	          0.18402718	          0.02787753	          0.01000004	          0.11747243	          0.01272553	          0.01000005	          0.42834337	
          0.70920620	         -8.57044926	          4.39824331	         -8.86940065	          0.84850621	          0.91908339	          0.01269089	         -7.60179055	         -4.60674445	          4.12669919	        -23.55186168	          1.98475306	         40.41675479	         30.18367581	          1.57546390	         -5.30397896	         -9.23533276	          4.09064060	          0.08726172	          0.36031142	         -5.17713331	          3.53425009	          0.20924802	          0.01000001	          0.01000004	          0.01685214	          0.10843017	          0.01626269	          0.05344759	          0.01238897	          0.23994287	          0.01000002	          0.01000000	          0.11524067	          0.12092666	          0.01000000	          0.05604959	          0.05501605	          0.01000001	          0.17025438	          0.08313666	          0.05384720	          0.07080206	          0.17544987	          0.02301887	          0.01000004	          0.17265599	          0.01050770	          0.01000032	          0.41726767	
